<mxfile host="Electron" modified="2023-11-23T12:36:55.060Z" agent="Mozilla/5.0 (Macintosh; Intel Mac OS X 10_15_7) AppleWebKit/537.36 (KHTML, like Gecko) draw.io/22.0.3 Chrome/114.0.5735.289 Electron/25.8.4 Safari/537.36" etag="d-dXzVD3mCUHFvO-oUXH" version="22.0.3" type="device">
  <diagram id="rMvdf8qOIr-5ktG2nBTj" name="Page-1">
    <mxGraphModel dx="1964" dy="878" grid="1" gridSize="10" guides="1" tooltips="1" connect="1" arrows="1" fold="1" page="1" pageScale="1" pageWidth="850" pageHeight="1100" background="#ffffff" math="0" shadow="0">
      <root>
        <mxCell id="0" />
        <mxCell id="1" parent="0" />
        <mxCell id="KGi8-4T1SCaVCmAp8pCe-1" value="Programming &amp;amp; Scripting" style="rounded=0;whiteSpace=wrap;html=1;fillColor=#fff2cc;strokeColor=#d6b656;" parent="1" vertex="1">
          <mxGeometry x="-90" y="430" width="160" height="90" as="geometry" />
        </mxCell>
        <mxCell id="KGi8-4T1SCaVCmAp8pCe-2" value="Architecture &amp;amp; Design Patterns" style="rounded=0;whiteSpace=wrap;html=1;fillColor=#e1d5e7;strokeColor=#9673a6;" parent="1" vertex="1">
          <mxGeometry x="390" y="430" width="160" height="90" as="geometry" />
        </mxCell>
        <mxCell id="KGi8-4T1SCaVCmAp8pCe-3" value="Computer Security" style="rounded=0;whiteSpace=wrap;html=1;fillColor=#ffe6cc;strokeColor=#d79b00;" parent="1" vertex="1">
          <mxGeometry x="1030" y="430" width="160" height="90" as="geometry" />
        </mxCell>
        <mxCell id="KGi8-4T1SCaVCmAp8pCe-7" value="Cloud Platforms" style="rounded=0;whiteSpace=wrap;html=1;fillColor=#e1d5e7;strokeColor=#9673a6;" parent="1" vertex="1">
          <mxGeometry x="710" y="430" width="160" height="90" as="geometry" />
        </mxCell>
        <mxCell id="KGi8-4T1SCaVCmAp8pCe-8" value="Business Value &amp;amp; Customer Centricity" style="rounded=0;whiteSpace=wrap;html=1;fillColor=#fff2cc;strokeColor=#d6b656;" parent="1" vertex="1">
          <mxGeometry x="1190" y="430" width="160" height="90" as="geometry" />
        </mxCell>
        <mxCell id="iDwtIqG1vuOme2gipTEX-1" value="Computer Science Basics" style="rounded=0;whiteSpace=wrap;html=1;fillColor=#ffe6cc;strokeColor=#d79b00;" parent="1" vertex="1">
          <mxGeometry x="70" y="430" width="160" height="90" as="geometry" />
        </mxCell>
        <mxCell id="iDwtIqG1vuOme2gipTEX-2" value="System Design" style="rounded=0;whiteSpace=wrap;html=1;fillColor=#dae8fc;strokeColor=#6c8ebf;" parent="1" vertex="1">
          <mxGeometry x="550" y="430" width="160" height="90" as="geometry" />
        </mxCell>
        <mxCell id="iDwtIqG1vuOme2gipTEX-3" value="Software Systems" style="rounded=0;whiteSpace=wrap;html=1;fillColor=#f8cecc;strokeColor=#b85450;" parent="1" vertex="1">
          <mxGeometry x="870" y="430" width="160" height="90" as="geometry" />
        </mxCell>
        <mxCell id="iDwtIqG1vuOme2gipTEX-4" value="Process Automation" style="rounded=0;whiteSpace=wrap;html=1;fillColor=#f8cecc;strokeColor=#b85450;" parent="1" vertex="1">
          <mxGeometry x="230" y="430" width="160" height="90" as="geometry" />
        </mxCell>
        <mxCell id="iDwtIqG1vuOme2gipTEX-7" value="..." style="rounded=0;whiteSpace=wrap;html=1;fillColor=#dae8fc;strokeColor=#6c8ebf;" parent="1" vertex="1">
          <mxGeometry x="550" y="520" width="160" height="90" as="geometry" />
        </mxCell>
      </root>
    </mxGraphModel>
  </diagram>
</mxfile>
